# xmcd CD database file
#
# Track frame offsets:
#	150
#	21869
#	39796
#	57346
#	74972
#	86642
#	121497
#	138828
#	155930
#	174981
#
# Disc length: 2478 seconds
#
# Revision: 0
# Processed by: cddbd v1.5.2PL0 Copyright (c) Steve Scherf et al.
# Submitted via: CDex 1.70beta2
#
DISCID=8b09ac0a
DTITLE=Ahmad Jamal - Alhambra
DYEAR=1900
DGENRE=Jazz
TTITLE0=we kiss in a shadow
TTITLE1=sweet and lovely
TTITLE2=the party is over
TTITLE3=love for sale
TTITLE4=snowfall
TTITLE5=broadway
TTITLE6=willow weep for me
TTITLE7=autumn leaves
TTITLE8=isn´t it romantic
TTITLE9=the breeze and i
EXTD=
EXTT0=
EXTT1=
EXTT2=
EXTT3=
EXTT4=
EXTT5=
EXTT6=
EXTT7=
EXTT8=
EXTT9=
PLAYORDER=
